# xmcd
#
# Track frame offsets:
#   150
#   11143
#   22885
#   35615
#   46856
#   59458
#   70716
#   82146
#   93846
#   104401
#   116049
#   127922
#   138870
#   152620
#   165563
#   177520
#   189192
#   198042
#   209978
#   222763
#   235583
#   247377
#   260759
#   272746
#   285503
#
# Disc length: 3956 seconds
#
# Revision: 1
# Processed by: cddbd v1.5.1PL0 Copyright (c) Steve Scherf et al.
# Submitted via: Media_Universe 3.0
#
DISCID=670f7219
DTITLE=Delmore Brothers - Les Triomphes De La Country Music
DYEAR=2002
DGENRE=Country
TTITLE0=I'm Mississippi Bound
TTITLE1=Lonesome Yodel Blues
TTITLE2=Lonesome Jailhouse Blues
TTITLE3=That Yodelin' Gal Miss Julie
TTITLE4=False Hearted Girl
TTITLE5=Singing My Troubles Away
TTITLE6=Goodbye Booze
TTITLE7=Wabash Blues
TTITLE8=Careless Love
TTITLE9=Scattebrain Mama
TTITLE10=Silver Dollar
TTITLE11=There's Trouble On My Mind Today
TTITLE12=Will You Be Lonesome Too
TTITLE13=Precious Jewel
TTITLE14=Hillbilly Boogie
TTITLE15=Kentucky Mountain
TTITLE16=Midnight Train
TTITLE17=Freight Train Boogie
TTITLE18=Barnyard Boogie
TTITLE19=Stop That Boogie
TTITLE20=Used Car Blues
TTITLE21=Red Ball To Natchez
TTITLE22=Del Rio Boogie
TTITLE23=Pan American Boogie
TTITLE24=Catfish Baby
EXTD=YEAR: 2002
EXTT0=
EXTT1=
EXTT2=
EXTT3=
EXTT4=
EXTT5=
EXTT6=
EXTT7=
EXTT8=
EXTT9=
EXTT10=
EXTT11=
EXTT12=
EXTT13=
EXTT14=
EXTT15=
EXTT16=
EXTT17=
EXTT18=
EXTT19=
EXTT20=
EXTT21=
EXTT22=
EXTT23=
EXTT24=
PLAYORDER=
